<?xml version="1.0" encoding="UTF-8"?>
<svg xmlns="http://www.w3.org/2000/svg" xmlns:xlink="http://www.w3.org/1999/xlink" viewBox="0 0 96 96" width="96px" height="96px">
<g id="surface128154326">
<rect x="0" y="0" width="96" height="96" style="fill:rgb(74.901962%,85.882354%,99.607843%);fill-opacity:1;stroke:none;"/>
<path style=" stroke:none;fill-rule:nonzero;fill:rgb(100%,79.215688%,15.686275%);fill-opacity:1;" d="M 88 50 C 88 72.089844 70.089844 90 48 90 C 25.910156 90 8 72.089844 8 50 C 8 27.910156 25.910156 10 48 10 C 70.089844 10 88 27.910156 88 50 Z M 88 50 "/>
<path style=" stroke:none;fill-rule:nonzero;fill:rgb(100%,100%,100%);fill-opacity:1;" d="M 48.011719 30 C 41.484375 29.996094 35.699219 33.148438 32.042969 37.992188 L 32.007812 37.992188 L 32.007812 38.042969 C 29.503906 41.382812 28.003906 45.511719 28 49.992188 C 27.992188 61.019531 36.960938 69.992188 47.988281 70 C 59.019531 70.007812 67.992188 61.035156 68 50.011719 C 68.007812 38.984375 59.039062 30.007812 48.011719 30 Z M 32 49.992188 C 32 48.761719 32.152344 47.5625 32.421875 46.410156 L 36 49.992188 L 41.996094 55.996094 L 41.996094 57.996094 C 41.996094 60.207031 43.785156 61.996094 45.996094 61.996094 L 45.992188 65.859375 C 38.113281 64.867188 31.996094 58.136719 32 49.992188 Z M 59.785156 60.785156 C 59.269531 59.175781 57.777344 58.003906 55.996094 58.003906 L 53.996094 58.003906 L 54 52.003906 C 54 50.898438 53.105469 50.003906 52 50.003906 L 42 50 L 42.003906 46 L 44.003906 46 C 45.105469 46 46.003906 45.105469 46.003906 44 L 46.003906 40 L 50.003906 40.003906 C 52.214844 40.003906 54.003906 38.214844 54.007812 36.003906 L 54.007812 35.183594 C 59.859375 37.5625 64.003906 43.308594 64 50.007812 C 63.996094 54.160156 62.390625 57.9375 59.785156 60.785156 Z M 59.785156 60.785156 "/>
</g>
</svg>
