<?xml version="1.0" encoding="UTF-8"?>
<svg xmlns="http://www.w3.org/2000/svg" xmlns:xlink="http://www.w3.org/1999/xlink" viewBox="0 0 100 100" width="100px" height="100px">
<g id="surface128917029">
<rect x="0" y="0" width="100" height="100" style="fill:rgb(11.372549%,30.588236%,84.705883%);fill-opacity:1;stroke:none;"/>
<path style=" stroke:none;fill-rule:nonzero;fill:rgb(94.509804%,73.725492%,9.803922%);fill-opacity:1;" d="M 77 12 C 76.449219 12 76 12.449219 76 13 C 76 13.550781 76.449219 14 77 14 C 77.550781 14 78 13.550781 78 13 C 78 12.449219 77.550781 12 77 12 Z M 77 12 "/>
<path style=" stroke:none;fill-rule:nonzero;fill:rgb(90.196079%,92.941177%,71.764708%);fill-opacity:1;" d="M 50 13 C 29.566406 13 13 29.566406 13 50 C 13 70.433594 29.566406 87 50 87 C 70.433594 87 87 70.433594 87 50 C 87 29.566406 70.433594 13 50 13 Z M 50 13 "/>
<path style=" stroke:none;fill-rule:nonzero;fill:rgb(94.509804%,73.725492%,9.803922%);fill-opacity:1;" d="M 83 11 C 80.789062 11 79 12.789062 79 15 C 79 17.210938 80.789062 19 83 19 C 85.210938 19 87 17.210938 87 15 C 87 12.789062 85.210938 11 83 11 Z M 83 11 "/>
<path style=" stroke:none;fill-rule:nonzero;fill:rgb(53.333336%,68.235296%,27.058825%);fill-opacity:1;" d="M 87 22 C 85.894531 22 85 22.894531 85 24 C 85 25.105469 85.894531 26 87 26 C 88.105469 26 89 25.105469 89 24 C 89 22.894531 88.105469 22 87 22 Z M 87 22 "/>
<path style=" stroke:none;fill-rule:nonzero;fill:rgb(98.431373%,80.392158%,34.901962%);fill-opacity:1;" d="M 81 74 C 79.894531 74 79 74.894531 79 76 C 79 77.105469 79.894531 78 81 78 C 82.105469 78 83 77.105469 83 76 C 83 74.894531 82.105469 74 81 74 Z M 15 59 C 12.789062 59 11 60.789062 11 63 C 11 65.210938 12.789062 67 15 67 C 17.210938 67 19 65.210938 19 63 C 19 60.789062 17.210938 59 15 59 Z M 15 59 "/>
<path style=" stroke:none;fill-rule:nonzero;fill:rgb(53.333336%,68.235296%,27.058825%);fill-opacity:1;" d="M 25 85 C 23.894531 85 23 85.894531 23 87 C 23 88.105469 23.894531 89 25 89 C 26.105469 89 27 88.105469 27 87 C 27 85.894531 26.105469 85 25 85 Z M 25 85 "/>
<path style=" stroke:none;fill-rule:nonzero;fill:rgb(100%,100%,100%);fill-opacity:1;" d="M 18.5 49 C 17.121094 49 16 50.121094 16 51.5 C 16 52.878906 17.121094 54 18.5 54 C 19.878906 54 21 52.878906 21 51.5 C 21 50.121094 19.878906 49 18.5 49 Z M 79.5 32 C 78.671875 32 78 32.671875 78 33.5 C 78 34.328125 78.671875 35 79.5 35 C 80.328125 35 81 34.328125 81 33.5 C 81 32.671875 80.328125 32 79.5 32 Z M 79.5 32 "/>
<path style=" stroke:none;fill-rule:nonzero;fill:rgb(45.09804%,69.803923%,89.803922%);fill-opacity:1;" d="M 35 72.300781 C 31 72.300781 27.699219 69 27.699219 65 L 27.699219 35 C 27.699219 31 31 27.699219 35 27.699219 L 65 27.699219 C 69 27.699219 72.300781 31 72.300781 35 L 72.300781 65 C 72.300781 69 69 72.300781 65 72.300781 Z M 35 72.300781 "/>
<path style=" stroke:none;fill-rule:nonzero;fill:rgb(27.843139%,16.862746%,16.078432%);fill-opacity:1;" d="M 65 28.398438 C 68.601562 28.398438 71.601562 31.398438 71.601562 35 L 71.601562 65 C 71.601562 68.601562 68.601562 71.601562 65 71.601562 L 35 71.601562 C 31.398438 71.601562 28.398438 68.601562 28.398438 65 L 28.398438 35 C 28.398438 31.398438 31.398438 28.398438 35 28.398438 L 65 28.398438 M 65 27 L 35 27 C 30.601562 27 27 30.601562 27 35 L 27 65 C 27 69.398438 30.601562 73 35 73 L 65 73 C 69.398438 73 73 69.398438 73 65 L 73 35 C 73 30.601562 69.398438 27 65 27 Z M 65 27 "/>
<path style=" stroke:none;fill-rule:nonzero;fill:rgb(99.215686%,98.823529%,93.333334%);fill-opacity:1;" d="M 68.5 47.898438 L 68.5 64 C 68.5 66.5 66.5 68.5 64 68.5 L 36 68.5 C 33.5 68.5 31.5 66.5 31.5 64 L 31.5 36 C 31.5 33.5 33.5 31.5 36 31.5 L 64 31.5 C 66.5 31.5 68.5 33.5 68.5 36 L 68.5 47.898438 "/>
<path style=" stroke:none;fill-rule:nonzero;fill:rgb(27.843139%,16.862746%,16.078432%);fill-opacity:1;" d="M 68.5 47.398438 C 68.199219 47.398438 68 47.199219 68 46.898438 L 68 43 C 68 42.699219 68.199219 42.5 68.5 42.5 C 68.800781 42.5 69 42.699219 69 43 L 69 46.898438 C 69 47.199219 68.800781 47.398438 68.5 47.398438 Z M 68.5 40.5 C 68.199219 40.5 68 40.300781 68 40 L 68 38 C 68 37.699219 68.199219 37.5 68.5 37.5 C 68.800781 37.5 69 37.699219 69 38 L 69 40 C 69 40.300781 68.800781 40.5 68.5 40.5 Z M 68.5 40.5 "/>
<path style=" stroke:none;fill-rule:nonzero;fill:rgb(27.843139%,16.862746%,16.078432%);fill-opacity:1;" d="M 64 69 L 36 69 C 33.199219 69 31 66.800781 31 64 L 31 36 C 31 33.199219 33.199219 31 36 31 L 61.398438 31 C 61.699219 31 61.898438 31.199219 61.898438 31.5 C 61.898438 31.800781 61.699219 32 61.398438 32 L 36 32 C 33.800781 32 32 33.800781 32 36 L 32 64 C 32 66.199219 33.800781 68 36 68 L 64 68 C 66.199219 68 68 66.199219 68 64 L 68 49.601562 C 68 49.300781 68.199219 49.101562 68.5 49.101562 C 68.800781 49.101562 69 49.300781 69 49.601562 L 69 64 C 69 66.800781 66.800781 69 64 69 Z M 64 69 "/>
<path style=" stroke:none;fill-rule:nonzero;fill:rgb(14.901961%,54.509807%,93.725491%);fill-opacity:1;" d="M 61.898438 42.800781 C 61 43.199219 60 43.5 59 43.601562 C 60 43 60.800781 42 61.199219 40.800781 C 60.199219 41.398438 59.199219 41.800781 58 42 C 57.101562 41 55.800781 40.398438 54.300781 40.398438 C 51.5 40.398438 49.300781 42.699219 49.300781 45.5 C 49.300781 45.898438 49.300781 46.300781 49.398438 46.699219 C 45.199219 46.5 41.601562 44.5 39.101562 41.398438 C 38.699219 42.199219 38.398438 43 38.398438 44 C 38.398438 45.800781 39.300781 47.300781 40.601562 48.300781 C 39.800781 48.300781 39 48 38.300781 47.699219 C 38.300781 47.699219 38.300781 47.699219 38.300781 47.800781 C 38.300781 50.300781 40 52.300781 42.300781 52.800781 C 41.898438 52.898438 41.398438 53 41 53 C 40.699219 53 40.398438 53 40.101562 52.898438 C 40.699219 54.898438 42.601562 56.398438 44.800781 56.398438 C 43.101562 57.800781 40.898438 58.601562 38.601562 58.601562 C 38.199219 58.601562 37.800781 58.601562 37.398438 58.5 C 39.601562 59.898438 42.199219 60.800781 45.101562 60.800781 C 54.300781 60.800781 59.300781 53 59.300781 46.300781 C 59.300781 46.101562 59.300781 45.898438 59.300781 45.601562 C 60.398438 44.699219 61.300781 43.800781 61.898438 42.800781 Z M 61.898438 42.800781 "/>
<path style=" stroke:none;fill-rule:nonzero;fill:rgb(27.843139%,16.862746%,16.078432%);fill-opacity:1;" d="M 45.199219 61.101562 C 42.398438 61.101562 39.601562 60.300781 37.300781 58.699219 C 37.101562 58.601562 37 58.300781 37.101562 58.101562 C 37.199219 57.898438 37.398438 57.699219 37.601562 57.800781 C 39.800781 58.101562 41.800781 57.601562 43.601562 56.5 C 41.800781 56 40.300781 54.601562 39.800781 52.800781 C 39.699219 52.601562 39.800781 52.398438 39.898438 52.300781 C 40 52.199219 40.199219 52.101562 40.398438 52.101562 C 39 51.101562 38 49.398438 38 47.5 C 38 47.300781 38.101562 47.101562 38.199219 47 C 38.398438 46.898438 38.5 46.898438 38.699219 47 C 38.800781 47.101562 39 47.101562 39.101562 47.199219 C 38.398438 46.199219 38 45.101562 38 43.800781 C 38 42.800781 38.300781 41.800781 38.699219 41 C 38.800781 40.898438 38.898438 40.800781 39.101562 40.699219 C 39.300781 40.699219 39.398438 40.800781 39.5 40.898438 C 41.800781 43.800781 45.199219 45.699219 48.800781 46 C 48.800781 45.800781 48.800781 45.601562 48.800781 45.398438 C 48.800781 42.300781 51.300781 39.800781 54.300781 39.800781 C 55.699219 39.800781 57.101562 40.398438 58.101562 41.398438 C 59.101562 41.199219 60 40.800781 60.898438 40.300781 C 61.101562 40.199219 61.300781 40.199219 61.5 40.300781 C 61.699219 40.398438 61.699219 40.601562 61.699219 40.800781 C 61.5 41.5 61.199219 42.101562 60.800781 42.601562 C 61.101562 42.5 61.398438 42.398438 61.699219 42.199219 C 61.898438 42.101562 62.101562 42.199219 62.300781 42.300781 C 62.398438 42.5 62.5 42.699219 62.300781 42.898438 C 61.601562 43.898438 60.800781 44.800781 59.898438 45.5 C 59.898438 45.601562 59.898438 45.800781 59.898438 45.898438 C 60 53.5 54.398438 61.101562 45.199219 61.101562 Z M 39.601562 58.898438 C 41.398438 59.699219 43.300781 60.199219 45.300781 60.199219 C 53.898438 60.199219 59 53.101562 59 46.199219 C 59 46 59 45.800781 59 45.601562 C 59 45.398438 59.101562 45.300781 59.199219 45.199219 C 59.699219 44.800781 60.101562 44.398438 60.5 44 C 60.101562 44.101562 59.601562 44.199219 59.101562 44.300781 C 58.898438 44.300781 58.601562 44.199219 58.601562 44 C 58.5 43.800781 58.601562 43.5 58.800781 43.398438 C 59.300781 43.101562 59.800781 42.601562 60.199219 42.101562 C 59.601562 42.398438 58.898438 42.601562 58.199219 42.699219 C 58 42.699219 57.898438 42.699219 57.699219 42.5 C 56.898438 41.601562 55.699219 41 54.398438 41 C 51.898438 41 49.898438 43.101562 49.898438 45.601562 C 49.898438 46 49.898438 46.300781 50 46.699219 C 50 46.898438 50 47 49.898438 47.101562 C 49.800781 47.199219 49.601562 47.300781 49.5 47.300781 C 45.601562 47.101562 41.898438 45.300781 39.300781 42.398438 C 39.101562 42.898438 39 43.5 39 44.101562 C 39 45.601562 39.800781 47.101562 41 47.898438 C 41.199219 48 41.300781 48.300781 41.199219 48.5 C 41.101562 48.699219 40.898438 48.898438 40.699219 48.800781 C 40.101562 48.800781 39.601562 48.699219 39 48.5 C 39.300781 50.398438 40.699219 51.898438 42.5 52.300781 C 42.699219 52.300781 42.898438 52.5 42.898438 52.800781 C 42.898438 53 42.800781 53.199219 42.5 53.300781 C 42 53.398438 41.398438 53.5 40.898438 53.5 C 41.699219 55 43.101562 55.898438 44.800781 56 C 45 56 45.199219 56.101562 45.300781 56.300781 C 45.398438 56.5 45.300781 56.699219 45.101562 56.898438 C 43.601562 57.898438 41.601562 58.699219 39.601562 58.898438 Z M 39.601562 58.898438 "/>
</g>
</svg>
